<?xml version="1.0" encoding="UTF-8" standalone="no"?>
<svg width="110px" height="36px" viewBox="0 0 110 36" version="1.1" xmlns="http://www.w3.org/2000/svg" xmlns:xlink="http://www.w3.org/1999/xlink">
    <!-- Generator: Sketch 3.7.2 (28276) - http://www.bohemiancoding.com/sketch -->
    <title>logo</title>
    <desc>Created with Sketch.</desc>
    <defs></defs>
    <g id="App-header" stroke="none" stroke-width="1" fill="none" fill-rule="evenodd">
        <g id="CMap-banner-logo" transform="translate(-1.000000, 0.000000)">
            <g id="logo" transform="translate(1.000000, -17.000000)">
                <path d="M34.4637908,28.1691074 C35.7147606,42.1738036 48.0803373,52.5133184 62.0818468,51.2614805 C76.0846374,50.0096426 86.4209913,37.642458 85.1700215,23.6377618 C83.9190517,9.63306557 71.553475,-0.7058085 57.5519655,0.545388741 C43.5491749,1.79722663 33.2121805,14.1644112 34.4637908,28.1691074" id="Fill-33" fill="#00B9F2"></path>
                <path d="M93.7244898,50.112069 C100.543516,50.112069 106.071429,44.5928206 106.071429,37.7844828 C106.071429,30.9761449 100.543516,25.4568966 93.7244898,25.4568966 C86.9054638,25.4568966 81.377551,30.9761449 81.377551,37.7844828 C81.377551,44.5928206 86.9054638,50.112069 93.7244898,50.112069 Z M93.7244898,50.112069 C100.543516,50.112069 106.071429,44.5928206 106.071429,37.7844828 C106.071429,30.9761449 100.543516,25.4568966 93.7244898,25.4568966 C86.9054638,25.4568966 81.377551,30.9761449 81.377551,37.7844828 C81.377551,44.5928206 86.9054638,50.112069 93.7244898,50.112069 Z" id="Fill-37" fill="#FFFFFF"></path>
                <ellipse id="Oval-1-Copy-2" stroke="#FFFFFF" cx="93.7244898" cy="37.7844828" rx="12.3469388" ry="12.3275862"></ellipse>
                <ellipse id="Oval-1-Copy-2" stroke="#FFFFFF" cx="93.7244898" cy="37.7844828" rx="12.3469388" ry="12.3275862"></ellipse>
                <path d="M77.9153577,39.1397177 C78.0082356,47.9179586 85.1989097,54.958746 93.9755548,54.8658511 C102.751559,54.7729563 109.791067,47.580334 109.697548,38.8033743 C109.60467,30.025774 102.413996,22.9849867 93.6379915,23.0778815 C84.8607059,23.1707763 77.8218392,30.3621174 77.9153577,39.1397177" id="Fill-39" fill="#00A875"></path>
                <path d="M59.4897959,43.5438871 C69.3182102,43.5438871 77.2857143,35.5888714 77.2857143,25.7758621 C77.2857143,15.9628528 69.3182102,8.00783699 59.4897959,8.00783699 C49.6613816,8.00783699 41.6938776,15.9628528 41.6938776,25.7758621 C41.6938776,35.5888714 49.6613816,43.5438871 59.4897959,43.5438871 Z" id="Oval-1-Copy-2" stroke="#FFFFFF"></path>
                <path d="M17.6446777,43.6160984 C17.5479566,53.4027287 25.4022275,61.4134662 35.1864381,61.5095643 C44.9706486,61.6056624 52.9812108,53.7506038 53.0772914,43.9652548 C53.173372,34.1792651 45.3197415,26.1672463 35.535531,26.0711482 C25.7513205,25.9756908 17.7407583,33.8301087 17.6446777,43.6160984" id="Fill-43" fill="#0072BC"></path>
                <ellipse id="Oval-1-Copy-2" stroke="#FFFFFF" stroke-width="2" cx="93.7244898" cy="38.9051724" rx="10.7129121" ry="10.6961207"></ellipse>
                <ellipse id="Oval-1-Copy-2" stroke="#FFFFFF" cx="35.2346939" cy="44.5086207" rx="10.7755102" ry="10.7586207"></ellipse>
                <path d="M93.7244898,45.4717134 C97.3567835,45.4717134 100.301339,42.5317728 100.301339,38.9051724 C100.301339,35.278572 97.3567835,32.3386315 93.7244898,32.3386315 C90.0921961,32.3386315 87.1476403,35.278572 87.1476403,38.9051724 C87.1476403,42.5317728 90.0921961,45.4717134 93.7244898,45.4717134 Z" id="Oval-1-Copy-2" stroke="#FFFFFF"></path>
                <path d="M78.82845,61.3546605 C84.8283649,60.8177925 89.2570413,55.5163807 88.7215519,49.5147342 C88.1847815,43.512447 82.8856146,39.081684 76.8856998,39.6179114 C70.8857849,40.1547794 66.4571085,45.4561912 66.9932384,51.4578377 C67.5293683,57.4601249 72.8278946,61.8908879 78.82845,61.3546605 Z" id="Fill-49" fill="#FFD500"></path>
                <path d="M60.0510204,32.9737461 C63.7225869,32.9737461 66.6989796,30.0020186 66.6989796,26.3362069 C66.6989796,22.6703952 63.7225869,19.6986677 60.0510204,19.6986677 C56.3794539,19.6986677 53.4030612,22.6703952 53.4030612,26.3362069 C53.4030612,30.0020186 56.3794539,32.9737461 60.0510204,32.9737461 Z" id="Oval-1-Copy-2" stroke="#FFFFFF" stroke-width="2"></path>
                <path d="M35.6479592,48.3164185 C37.6829377,48.3164185 39.3326138,46.6693281 39.3326138,44.6375392 C39.3326138,42.6057502 37.6829377,40.9586599 35.6479592,40.9586599 C33.6129806,40.9586599 31.9633046,42.6057502 31.9633046,44.6375392 C31.9633046,46.6693281 33.6129806,48.3164185 35.6479592,48.3164185 Z" id="Oval-1-Copy-3" stroke="#FFFFFF" stroke-width="2"></path>
                <path d="M50.5446834,46.3616242 C51.0270081,51.7623374 55.7945289,55.7484865 61.192979,55.266074 C66.5920697,54.7836616 70.5774942,50.013352 70.0945289,44.6132795 C69.6122041,39.2119257 64.8440429,35.2257766 59.4455927,35.7088297 C54.046502,36.1912422 50.0617181,40.9609111 50.5446834,46.3616242" id="Fill-51" fill="#F15A22"></path>
                <path d="M25.2915086,39.1385708 C32.4905097,38.4947136 37.8050495,32.1362228 37.1619498,24.9365532 C36.5182096,17.7356024 30.1608748,12.4207369 22.9618737,13.0639535 C15.7628725,13.7078108 10.4483328,20.0656609 11.0914325,27.2666118 C11.7351727,34.466922 18.0925075,39.7817875 25.2915086,39.1385708 Z" id="Fill-55" fill="#ED1C24"></path>
                <path d="M0.132645465,40.1351722 C0.654683539,45.9721707 5.8071673,50.2812094 11.6431046,49.7603577 C17.4784013,49.2388654 21.7860161,44.084804 21.2646186,38.2478055 C20.7425805,32.4108071 15.5894562,28.1011277 9.75415946,28.62262 C3.91886271,29.1441124 -0.388752072,34.2981737 0.132645465,40.1351722" id="Fill-57" fill="#F8941E"></path>
                <path d="M10.6988242,32.4965906 C7.00804703,32.4965906 4.0058477,35.4999765 4.0058477,39.1914248 C4.0058477,42.8828731 7.00804703,45.886259 10.6988242,45.886259 C14.3896013,45.8856183 17.3918007,42.8828731 17.3918007,39.1914248 C17.3918007,35.4999765 14.3896013,32.4965906 10.6988242,32.4965906 M10.6988242,47.4981444 C6.1196215,47.4981444 2.39361478,43.7714602 2.39361478,39.1914248 C2.39361478,34.6107488 6.1196215,30.8847052 10.6988242,30.8847052 C15.2780269,30.8847052 19.0033931,34.6107488 19.0033931,39.1914248 C19.0033931,43.7714602 15.2780269,47.4981444 10.6988242,47.4981444" id="Fill-59" fill="#FFFFFF"></path>
                <path d="M24.1266911,18.1689407 C19.7537415,18.1689407 16.1961962,21.7277737 16.1961962,26.1015184 C16.1961962,30.4746226 19.7537415,34.0328148 24.1266911,34.0328148 C28.4996407,34.0328148 32.0578266,30.4746226 32.0578266,26.1015184 C32.0578266,21.7277737 28.4996407,18.1689407 24.1266911,18.1689407 M24.1266911,35.0969411 C19.1670092,35.0969411 15.1322634,31.0614616 15.1322634,26.1015184 C15.1322634,21.1409346 19.1670092,17.1048145 24.1266911,17.1048145 C29.0863731,17.1048145 33.1217594,21.1409346 33.1217594,26.1015184 C33.1217594,31.0614616 29.0863731,35.0969411 24.1266911,35.0969411" id="Fill-65" fill="#FFFFFF"></path>
                <path d="M24.1266911,22.0457943 C21.8912152,22.0457943 20.0727292,23.8652516 20.0727292,26.101134 C20.0727292,28.3376571 21.8912152,30.1571144 24.1266911,30.1571144 C26.3628076,30.1571144 28.1812936,28.3376571 28.1812936,26.1017747 C28.1812936,23.8652516 26.3628076,22.0457943 24.1266911,22.0457943 M24.1266911,30.4101728 C21.751578,30.4101728 19.8190764,28.4773197 19.8190764,26.101134 C19.8190764,23.7249484 21.751578,21.7920953 24.1266911,21.7920953 C26.5024448,21.7920953 28.435587,23.7255891 28.435587,26.1017747 C28.435587,28.4773197 26.5024448,30.4101728 24.1266911,30.4101728" id="Fill-67" fill="#FFFFFF"></path>
                <ellipse id="Oval-1" stroke="#FFFFFF" cx="78.0102041" cy="51.112069" rx="3.92857143" ry="3.92241379"></ellipse>
                <ellipse id="Oval-1-Copy" stroke="#FFFFFF" cx="60.0510204" cy="45.6293103" rx="6.17346939" ry="6.1637931"></ellipse>
            </g>
        </g>
    </g>
</svg>